<svg xmlns="http://www.w3.org/2000/svg" viewBox="0 0 1920 1080" role="img" aria-label="Reef aquarium with clownfish">
  <defs>
    <linearGradient id="sky" x1="0%" y1="0%" x2="0%" y2="100%">
      <stop offset="0%" stop-color="#0c4a6e"/>
      <stop offset="45%" stop-color="#0e7490"/>
      <stop offset="100%" stop-color="#164e63"/>
    </linearGradient>
    <linearGradient id="sand" x1="0%" y1="0%" x2="0%" y2="100%">
      <stop offset="0%" stop-color="#134e4a"/>
      <stop offset="100%" stop-color="#042f2e"/>
    </linearGradient>
    <radialGradient id="light" cx="50%" cy="15%" r="60%">
      <stop offset="0%" stop-color="#67e8f9" stop-opacity="0.35"/>
      <stop offset="100%" stop-color="#0e7490" stop-opacity="0"/>
    </radialGradient>
  </defs>
  <rect width="1920" height="1080" fill="url(#sky)"/>
  <rect y="720" width="1920" height="360" fill="url(#sand)"/>
  <rect width="1920" height="1080" fill="url(#light)"/>
  <ellipse cx="420" cy="820" rx="180" ry="60" fill="#115e59" opacity="0.8"/>
  <ellipse cx="980" cy="860" rx="260" ry="70" fill="#0f766e" opacity="0.7"/>
  <ellipse cx="1480" cy="800" rx="200" ry="55" fill="#134e4a" opacity="0.85"/>
  <path d="M380 780 Q400 620 430 580 Q460 540 490 600 Q520 660 500 780 Z" fill="#f97316" opacity="0.9"/>
  <path d="M410 780 Q430 650 455 620 Q480 590 505 640 Q530 690 515 780 Z" fill="#fff" opacity="0.85"/>
  <ellipse cx="1100" cy="520" rx="55" ry="32" fill="#fb923c"/>
  <ellipse cx="1135" cy="525" rx="38" ry="22" fill="#fff" opacity="0.9"/>
  <ellipse cx="1055" cy="510" rx="14" ry="10" fill="#fff"/>
  <ellipse cx="1180" cy="510" rx="14" ry="10" fill="#fff"/>
  <ellipse cx="820" cy="480" rx="42" ry="26" fill="#f97316"/>
  <ellipse cx="848" cy="484" rx="28" ry="18" fill="#fff" opacity="0.88"/>
  <circle cx="1300" cy="380" r="6" fill="#fde68a" opacity="0.6"/>
  <circle cx="1450" cy="420" r="4" fill="#fde68a" opacity="0.5"/>
  <circle cx="600" cy="350" r="5" fill="#fde68a" opacity="0.55"/>
</svg>
